<?xml version="1.0" standalone="no"?><svg xmlns="http://www.w3.org/2000/svg" viewBox="0 0 1440 320"><path fill="#FF6F00" fill-opacity="1" d="M0,256L34.3,213.3C68.6,171,137,85,206,85.3C274.3,85,343,171,411,181.3C480,192,549,128,617,85.3C685.7,43,754,21,823,26.7C891.4,32,960,64,1029,101.3C1097.1,139,1166,181,1234,186.7C1302.9,192,1371,160,1406,144L1440,128L1440,0L1405.7,0C1371.4,0,1303,0,1234,0C1165.7,0,1097,0,1029,0C960,0,891,0,823,0C754.3,0,686,0,617,0C548.6,0,480,0,411,0C342.9,0,274,0,206,0C137.1,0,69,0,34,0L0,0Z"></path></svg>